<svg height="467pt" viewBox="-35 0 467 467.34283" fill="#fff" width="467pt" xmlns="http://www.w3.org/2000/svg"><path d="m388.972656 158.199219c-8.757812-2.484375-17.800781-3.792969-26.902344-3.898438-13.691406-88.769531-90.078124-154.2890622-179.898437-154.300781-100.402344 0-182 81.601562-182 182 .082031 85.121094 59.070313 158.847656 142.097656 177.601562.101563 0 .203125.097657.402344.097657h.097656l53.203125 53.199219c2.246094 2.269531 5.746094 2.722656 8.5 1.101562l34.097656-20.300781 36 36c1.296876 1.3125 3.054688 2.066406 4.902344 2.101562 1.851563.011719 3.628906-.75 4.898438-2.101562l34.300781-34.300781c1.863281-1.851563 2.523437-4.601563 1.699219-7.097657l-16.199219-50.699219 56.199219-56.203124c19.300781-19.296876 48-65.898438 33.5-118.199219-.632813-2.414063-2.496094-4.316407-4.898438-5zm-266.5 119.402343 36 36-9.601562 16.097657c-18.800782-16.300781-33.601563-37.5-43.699219-62.300781 9.316406-4.738282 19.058594-8.589844 29.097656-11.5l-11.796875 11.800781c-1.3125 1.296875-2.066406 3.054687-2.101562 4.902343.03125 1.871094.785156 3.664063 2.101562 5zm34.296875-44.203124-4 4c-18.246093 2.921874-35.945312 8.585937-52.5 16.800781-6.800781-21.117188-10.472656-43.117188-10.898437-65.300781h85.800781v46.402343l-11.300781-3.699219c-2.519532-.703124-5.21875-.015624-7.101563 1.796876zm-142.5-58.398438c1.496094-36.546875 14.914063-71.597656 38.203125-99.800781 10.511719 10.65625 22.339844 19.933593 35.199219 27.601562-7.5 22-11.699219 46.199219-12.402344 72.097657h-61zm86-65.300781c23.332031 11.589843 48.867188 18.066406 74.902344 19v46.199219h-85.800781c.417968-22.148438 4.089844-44.117188 10.898437-65.199219zm88.902344 19c26.027344-.988281 51.539063-7.570313 74.800781-19.300781 6.597656 20 10.296875 42.101562 11 65.601562h-85.800781zm0-14v-98.597657c31.398437 16.796876 55.398437 44.699219 69.898437 80-21.640624 11.28125-45.511718 17.636719-69.898437 18.597657zm-14 0c-24.414063-.957031-48.332031-7.199219-70.101563-18.300781 14.5-35.5 38.5-63.5 70.101563-80.296876zm14 74.300781h84.5c-.980469.847656-1.917969 1.75-2.800781 2.699219l-.300782.300781c-2.300781 2.699219-36.699218 37.101562-55.898437 56.199219l-25.402344-8.300781v-50.898438zm102.898437-14h-3.097656c-.703125-26-4.902344-50.398438-12.5-72.5 12.796875-7.742188 24.558594-17.085938 35-27.800781 19.203125 22.945312 31.847656 50.65625 36.597656 80.199219-21.800781 2.402343-41.199218 10.703124-56 20.101562zm9.902344-110.699219c-9.175781 9.488281-19.445312 17.847657-30.601562 24.898438-12.300782-29.097657-30.601563-53.5-54-71.5 32.15625 6.910156 61.574218 23.117187 84.601562 46.601562zm-155-46.601562c-23.5 18-41.902344 42.5-54.203125 71.800781-11.242187-6.976562-21.613281-15.269531-30.898437-24.699219 23.109375-23.742187 52.714844-40.125 85.101562-47.101562zm-132.703125 171.300781h61.101563c.699218 25.699219 4.898437 50 12.5 72.101562-12.902344 7.683594-24.765625 16.992188-35.300782 27.699219-.300781-.402343-.597656-.699219-.898437-1.101562-22.765625-28.015625-35.878906-62.632813-37.402344-98.699219zm47.601563 110.199219c9.292968-9.515625 19.703125-17.878907 31-24.898438 11.300781 27 27.800781 50 48.699218 67.597657l-1.597656 2.703124c-29.707031-7.6875-56.722656-23.390624-78.101562-45.402343zm140 99.902343-48.898438-48.902343 15.699219-26.300781 59.597656 59.601562zm148.601562-127.703124-59.203125 59.300781c-1.863281 1.855469-2.523437 4.601562-1.699219 7.101562l16.199219 50.699219-26.296875 26.300781-34.800781-34.800781-72.402344-72.300781-35-35 26.300781-26.300781 50.699219 16.601562c2.5.835938 5.253907.175781 7.101563-1.699219 28.101562-28.101562 55.800781-55.902343 59.398437-59.699219 16.703125-16.601562 56.101563-41.101562 100.601563-30.703124 10.398437 44.402343-14.199219 83.902343-30.898438 100.5zm0 0"/><path d="m84.726562 457.441406 43.628907-43.625 9.898437 9.898438-43.628906 43.628906zm0 0"/><path d="m148.539062 448.765625 22.34375-22.34375 9.902344 9.898437-22.347656 22.34375zm0 0"/><path d="m93.214844 393.800781 22.34375-22.347656 9.902344 9.902344-22.34375 22.34375zm0 0"/><path d="m317.070312 210.5c-13.53125 0-24.5 10.96875-24.5 24.5s10.96875 24.5 24.5 24.5 24.5-10.96875 24.5-24.5c-.019531-13.523438-10.976562-24.476562-24.5-24.5zm0 35c-5.796874 0-10.5-4.699219-10.5-10.5s4.703126-10.5 10.5-10.5c5.800782 0 10.5 4.699219 10.5 10.5s-4.699218 10.5-10.5 10.5zm0 0"/></svg>